<svg id="splitsvg" version="1.1" xmlns="http://www.w3.org/2000/svg" xmlns:xlink="http://www.w3.org/1999/xlink" width="1380" height="400"><g id="svgg"><path id="path0" d="M211.914 5.738 C 204.471 6.702,202.798 7.287,164.063 22.465 C 112.285 42.752,108.321 44.643,91.587 57.036 C 3.847 122.017,3.372 254.213,90.643 319.969 C 95.862 323.902,192.016 387.987,194.786 389.379 C 199.740 391.869,207.602 394.115,211.426 394.132 L 213.281 394.141 213.281 374.069 L 213.281 353.997 212.402 353.762 C 211.919 353.632,210.964 353.524,210.280 353.521 C 190.088 353.434,154.746 333.205,127.705 306.256 C 92.558 271.229,72.023 227.500,66.549 176.026 C 65.735 168.369,65.288 118.969,65.992 114.432 C 68.080 100.980,77.910 90.257,91.477 86.633 L 94.727 85.765 154.004 85.645 L 213.281 85.525 213.281 45.497 C 213.281 23.481,213.237 5.495,213.184 5.527 C 213.130 5.559,212.559 5.654,211.914 5.738 M226.953 18.498 L 226.953 26.389 234.863 31.138 C 273.072 54.073,311.279 66.684,356.250 71.202 L 361.133 71.692 361.231 190.889 L 361.329 310.085 358.692 310.504 C 339.009 313.624,331.290 315.229,322.048 318.121 C 292.046 327.511,269.131 341.560,246.484 364.450 C 236.951 374.085,234.471 376.134,229.928 378.131 L 226.953 379.438 226.953 386.361 L 226.953 393.283 229.508 392.517 C 238.854 389.713,243.860 386.279,254.687 375.244 C 272.623 356.964,288.424 345.989,310.106 336.754 C 325.732 330.098,336.732 327.386,365.918 322.996 L 374.609 321.689 374.609 190.141 L 374.609 58.594 370.410 58.592 C 354.044 58.584,326.982 54.191,306.503 48.217 C 280.795 40.718,261.555 31.874,233.691 14.749 L 226.953 10.607 226.953 18.498 M226.953 203.291 L 226.953 364.471 227.832 363.895 C 228.315 363.578,231.672 360.231,235.292 356.456 C 264.715 325.774,307.702 303.337,345.410 298.980 L 347.656 298.721 347.656 191.360 L 347.656 83.999 346.777 83.806 C 346.294 83.699,343.789 83.334,341.211 82.993 C 302.722 77.907,263.916 64.142,228.418 42.983 L 226.953 42.110 226.953 203.291 M94.388 99.838 C 87.882 101.413,82.524 106.334,80.225 112.847 L 79.313 115.430 79.307 141.016 C 79.295 188.352,83.647 211.188,98.640 242.460 C 122.094 291.383,174.148 336.691,210.840 340.119 L 213.281 340.347 213.281 323.963 L 213.281 307.578 206.738 307.145 C 189.205 305.983,174.974 296.156,170.029 281.795 L 169.612 280.583 164.396 280.362 C 153.741 279.912,147.035 276.915,138.631 268.849 L 134.721 265.095 139.508 260.297 L 144.295 255.498 148.257 259.352 C 158.338 269.160,171.321 269.542,180.308 260.295 C 181.751 258.811,184.766 254.417,184.766 253.799 C 184.766 253.689,183.403 253.522,181.738 253.429 C 171.393 252.850,164.157 242.883,167.035 233.176 C 168.071 229.682,169.007 228.252,173.083 223.927 C 182.300 214.150,185.989 205.370,186.582 191.799 C 187.965 160.098,170.129 140.334,139.453 139.577 C 122.255 139.153,112.643 142.668,101.462 153.470 L 97.220 157.568 92.541 152.888 L 87.861 148.209 92.856 143.317 C 101.825 134.535,110.763 129.729,123.056 127.081 C 127.764 126.066,146.897 126.038,152.171 127.038 C 177.151 131.772,196.127 151.868,199.460 177.117 C 202.355 199.042,197.225 217.277,184.053 231.886 C 180.230 236.127,179.936 236.573,180.032 237.988 C 180.362 242.860,198.305 239.300,210.059 232.031 L 213.281 230.038 213.281 164.628 L 213.281 99.219 154.980 99.251 C 106.039 99.279,96.312 99.373,94.388 99.838 M150.992 173.645 C 163.593 176.883,171.635 194.275,162.773 199.122 C 160.780 200.211,118.498 200.165,116.295 199.070 C 109.128 195.509,113.535 180.684,123.305 175.490 C 127.889 173.052,144.405 171.952,150.992 173.645 M212.328 246.057 C 212.043 246.517,203.461 250.115,201.128 250.751 C 199.352 251.236,199.320 251.273,198.842 253.454 C 198.185 256.450,196.338 260.827,194.577 263.563 C 193.778 264.804,192.991 266.040,192.828 266.309 C 192.594 266.694,194.710 266.797,202.907 266.797 L 213.281 266.797 213.281 256.250 C 213.281 246.622,213.110 244.791,212.328 246.057 M334.375 270.325 C 334.375 283.435,334.268 287.165,333.887 287.277 C 333.618 287.356,330.322 288.160,326.563 289.063 C 313.844 292.117,303.085 295.762,291.105 301.074 C 286.965 302.909,283.498 304.332,283.401 304.234 C 283.081 303.914,277.707 292.476,277.822 292.360 C 279.427 290.755,303.690 281.411,313.306 278.694 C 316.837 277.697,319.946 276.814,320.215 276.734 C 320.591 276.621,320.703 273.993,320.703 265.312 C 320.703 259.110,320.820 253.919,320.964 253.776 C 321.107 253.633,324.183 253.516,327.799 253.516 L 334.375 253.516 334.375 270.325 M184.375 280.691 C 184.375 281.371,187.042 284.601,189.425 286.807 C 194.742 291.730,200.280 293.750,208.461 293.750 L 213.281 293.750 213.281 287.109 L 213.281 280.469 198.828 280.469 C 190.879 280.469,184.375 280.569,184.375 280.691 M266.869 305.185 C 270.882 312.090,270.789 311.375,267.896 313.115 C 266.540 313.931,263.653 315.783,261.482 317.231 L 257.534 319.864 253.865 314.532 C 251.847 311.599,250.145 309.086,250.083 308.949 C 249.982 308.725,253.401 306.427,260.938 301.653 C 262.334 300.769,263.564 300.040,263.672 300.032 C 263.779 300.025,265.218 302.344,266.869 305.185  M -25 0 L -5 0 L -5 20 L -25 20 Z M 405 0 L 425 0 L 425 20 L 405 20 Z" stroke="none" fill="#64946c" fill-rule="evenodd" transform="translate(30,0)"></path><path id="path1" d="M0.000 200.000 L 0.000 400.000 200.000 400.000 L 400.000 400.000 400.000 200.000 L 400.000 0.000 200.000 0.000 L 0.000 0.000 0.000 200.000 M213.281 45.497 L 213.281 85.525 154.004 85.645 L 94.727 85.765 91.477 86.633 C 77.910 90.257,68.080 100.980,65.992 114.432 C 65.288 118.969,65.735 168.369,66.549 176.026 C 72.023 227.500,92.558 271.229,127.705 306.256 C 154.746 333.205,190.088 353.434,210.280 353.521 C 210.964 353.524,211.919 353.632,212.402 353.762 L 213.281 353.997 213.281 374.069 L 213.281 394.141 211.426 394.132 C 207.602 394.115,199.740 391.869,194.786 389.379 C 192.016 387.987,95.862 323.902,90.643 319.969 C 3.372 254.213,3.847 122.017,91.587 57.036 C 108.321 44.643,112.285 42.752,164.063 22.465 C 202.798 7.287,204.471 6.702,211.914 5.738 C 212.559 5.654,213.130 5.559,213.184 5.527 C 213.237 5.495,213.281 23.481,213.281 45.497 M246.680 22.553 C 283.390 44.069,333.192 58.574,370.410 58.592 L 374.609 58.594 374.609 190.141 L 374.609 321.689 365.918 322.996 C 336.732 327.386,325.732 330.098,310.106 336.754 C 288.424 345.989,272.623 356.964,254.687 375.244 C 243.860 386.279,238.854 389.713,229.508 392.517 L 226.953 393.283 226.953 386.361 L 226.953 379.438 229.928 378.131 C 234.471 376.134,236.951 374.085,246.484 364.450 C 269.131 341.560,292.046 327.511,322.048 318.121 C 331.290 315.229,339.009 313.624,358.692 310.504 L 361.329 310.085 361.231 190.889 L 361.133 71.692 356.250 71.202 C 311.279 66.684,273.072 54.073,234.863 31.138 L 226.953 26.389 226.953 18.498 L 226.953 10.607 233.691 14.749 C 237.397 17.027,243.242 20.539,246.680 22.553 M234.954 46.779 C 266.745 65.101,305.332 78.252,341.211 82.993 C 343.789 83.334,346.294 83.699,346.777 83.806 L 347.656 83.999 347.656 191.360 L 347.656 298.721 345.410 298.980 C 307.702 303.337,264.715 325.774,235.292 356.456 C 231.672 360.231,228.315 363.578,227.832 363.895 L 226.953 364.471 226.953 203.291 L 226.953 42.110 228.418 42.983 C 229.224 43.464,232.165 45.172,234.954 46.779 M213.281 164.628 L 213.281 230.038 210.059 232.031 C 198.305 239.300,180.362 242.860,180.032 237.988 C 179.936 236.573,180.230 236.127,184.053 231.886 C 197.225 217.277,202.355 199.042,199.460 177.117 C 196.127 151.868,177.151 131.772,152.171 127.038 C 146.897 126.038,127.764 126.066,123.056 127.081 C 110.763 129.729,101.825 134.535,92.856 143.317 L 87.861 148.209 92.541 152.888 L 97.220 157.568 101.462 153.470 C 112.643 142.668,122.255 139.153,139.453 139.577 C 170.129 140.334,187.965 160.098,186.582 191.799 C 185.989 205.370,182.300 214.150,173.083 223.927 C 169.007 228.252,168.071 229.682,167.035 233.176 C 164.157 242.883,171.393 252.850,181.738 253.429 C 183.403 253.522,184.766 253.689,184.766 253.799 C 184.766 254.417,181.751 258.811,180.308 260.295 C 171.321 269.542,158.338 269.160,148.257 259.352 L 144.295 255.498 139.508 260.297 L 134.721 265.095 138.631 268.849 C 147.035 276.915,153.741 279.912,164.396 280.362 L 169.612 280.583 170.029 281.795 C 174.974 296.156,189.205 305.983,206.738 307.145 L 213.281 307.578 213.281 323.963 L 213.281 340.347 210.840 340.119 C 197.100 338.836,181.271 331.595,161.849 317.712 C 118.188 286.499,88.973 238.492,81.263 185.290 C 79.540 173.399,79.300 167.980,79.307 141.016 L 79.313 115.430 80.225 112.847 C 81.984 107.864,85.261 104.043,89.896 101.568 C 94.376 99.176,91.271 99.287,154.980 99.251 L 213.281 99.219 213.281 164.628 M127.982 173.667 C 115.655 176.650,107.379 194.640,116.295 199.070 C 118.498 200.165,160.780 200.211,162.773 199.122 C 171.635 194.275,163.593 176.883,150.992 173.645 C 147.827 172.832,131.367 172.847,127.982 173.667 M213.281 256.250 L 213.281 266.797 202.907 266.797 C 194.710 266.797,192.594 266.694,192.828 266.309 C 192.991 266.040,193.778 264.804,194.577 263.563 C 196.338 260.827,198.185 256.450,198.842 253.454 C 199.320 251.273,199.352 251.236,201.128 250.751 C 203.461 250.115,212.043 246.517,212.328 246.057 C 213.110 244.791,213.281 246.622,213.281 256.250 M320.964 253.776 C 320.820 253.919,320.703 259.110,320.703 265.312 C 320.703 273.993,320.591 276.621,320.215 276.734 C 319.946 276.814,316.837 277.697,313.306 278.694 C 303.690 281.411,279.427 290.755,277.822 292.360 C 277.707 292.476,283.081 303.914,283.401 304.234 C 283.498 304.332,286.965 302.909,291.105 301.074 C 303.085 295.762,313.844 292.117,326.563 289.063 C 330.322 288.160,333.618 287.356,333.887 287.277 C 334.268 287.165,334.375 283.435,334.375 270.325 L 334.375 253.516 327.799 253.516 C 324.183 253.516,321.107 253.633,320.964 253.776 M213.281 287.109 L 213.281 293.750 208.461 293.750 C 200.280 293.750,194.742 291.730,189.425 286.807 C 187.042 284.601,184.375 281.371,184.375 280.691 C 184.375 280.569,190.879 280.469,198.828 280.469 L 213.281 280.469 213.281 287.109 M260.938 301.653 C 253.401 306.427,249.982 308.725,250.083 308.949 C 250.145 309.086,251.847 311.599,253.865 314.532 L 257.534 319.864 261.482 317.231 C 263.653 315.783,266.540 313.931,267.896 313.115 C 269.749 312.001,270.302 311.472,270.117 310.992 C 269.708 309.926,263.882 300.018,263.672 300.032 C 263.564 300.040,262.334 300.769,260.938 301.653  M -25 0 L -5 0 L -5 20 L -25 20 Z M 405 0 L 425 0 L 425 20 L 405 20 Z" stroke="none" fill="#fbfbfb" fill-rule="evenodd" transform="translate(490,0)"></path></g></svg>