<svg id="svg" version="1.1" xmlns="http://www.w3.org/2000/svg" xmlns:xlink="http://www.w3.org/1999/xlink" width="400" height="400" viewBox="0, 0, 400,400"><g id="svgg"><path id="path0" d="M211.914 5.738 C 204.481 6.701,202.701 7.322,164.844 22.149 C 112.878 42.502,108.654 44.500,92.383 56.422 C 3.903 121.252,3.027 253.918,90.643 319.970 C 95.807 323.864,192.010 387.984,194.794 389.388 C 199.753 391.889,207.672 394.141,211.507 394.141 L 213.281 394.141 213.281 374.065 C 213.281 351.722,213.520 353.516,210.541 353.516 C 190.370 353.516,154.819 333.268,127.900 306.447 C 92.652 271.328,71.989 227.443,66.562 176.172 C 65.734 168.351,65.281 119.026,65.994 114.407 C 68.066 100.993,78.292 89.883,91.477 86.722 C 94.649 85.962,96.137 85.943,154.004 85.940 L 213.281 85.938 213.281 45.703 C 213.281 23.574,213.237 5.495,213.184 5.527 C 213.130 5.559,212.559 5.654,211.914 5.738 M226.953 18.491 L 226.953 26.389 234.863 31.123 C 273.087 53.998,310.719 66.549,354.492 71.019 L 361.133 71.698 361.231 190.927 C 361.285 256.503,361.234 310.156,361.118 310.156 C 361.002 310.156,356.509 310.855,351.135 311.709 C 307.304 318.675,276.372 334.316,246.094 364.824 C 236.666 374.324,234.179 376.343,229.415 378.368 L 226.953 379.414 226.953 386.355 L 226.953 393.296 230.176 392.312 C 238.836 389.667,243.967 386.118,254.282 375.639 C 272.695 356.933,288.309 346.036,309.838 336.866 C 325.686 330.115,337.165 327.279,365.918 323.007 L 374.609 321.716 374.609 190.155 L 374.609 58.594 370.410 58.592 C 354.101 58.584,326.902 54.177,306.698 48.269 C 280.130 40.499,261.897 32.081,232.552 14.036 L 226.953 10.593 226.953 18.491 M226.953 203.354 C 226.953 356.812,226.986 364.524,227.637 364.024 C 228.013 363.736,232.100 359.695,236.719 355.045 C 267.118 324.438,307.955 303.387,345.482 298.976 L 347.656 298.721 347.656 191.360 L 347.656 83.999 346.777 83.811 C 346.294 83.708,343.262 83.253,340.039 82.801 C 302.262 77.497,259.407 62.373,230.235 44.049 C 229.397 43.523,228.315 42.882,227.832 42.626 L 226.953 42.160 226.953 203.354 M94.388 99.838 C 87.882 101.413,82.524 106.334,80.225 112.847 L 79.313 115.430 79.307 141.016 C 79.301 167.962,79.567 173.993,81.268 185.525 C 89.945 244.355,124.466 296.084,175.494 326.721 C 189.173 334.934,203.486 340.230,212.012 340.234 L 213.281 340.234 213.281 323.672 L 213.281 307.110 206.738 306.933 C 189.891 306.478,175.023 296.297,170.029 281.795 L 169.612 280.583 164.396 280.361 C 153.846 279.912,146.965 276.848,138.705 268.920 L 134.721 265.095 139.508 260.297 L 144.295 255.498 148.254 259.350 C 160.166 270.940,175.656 269.234,183.920 255.423 C 185.055 253.525,185.159 253.620,181.738 253.429 C 169.795 252.761,162.885 240.439,168.391 229.627 C 168.791 228.842,170.896 226.293,173.069 223.963 C 184.175 212.053,187.984 199.939,186.383 181.617 C 183.844 152.570,158.280 134.646,127.102 140.055 C 116.764 141.848,109.636 145.573,101.503 153.430 L 97.220 157.568 92.541 152.888 L 87.861 148.209 92.856 143.317 C 101.712 134.646,110.518 129.867,122.656 127.147 C 127.199 126.129,143.850 125.871,149.764 126.727 C 174.760 130.344,194.448 149.298,199.099 174.219 C 200.120 179.693,200.105 196.634,199.074 202.148 C 196.945 213.539,192.294 222.746,184.053 231.886 C 180.230 236.127,179.936 236.573,180.032 237.988 C 180.370 242.976,198.765 239.182,210.645 231.674 L 213.281 230.008 213.281 164.613 L 213.281 99.219 154.980 99.251 C 106.039 99.279,96.312 99.373,94.388 99.838 M152.801 174.117 C 164.508 178.449,170.965 194.642,162.773 199.122 C 160.753 200.226,118.932 200.162,116.467 199.051 C 109.072 195.716,113.416 180.747,123.305 175.490 C 128.260 172.855,147.032 171.982,152.801 174.117 M212.328 246.057 C 212.042 246.519,203.457 250.116,201.110 250.756 C 199.456 251.208,199.266 251.383,199.024 252.677 C 198.362 256.218,196.157 261.328,193.773 264.844 C 193.118 265.811,192.581 266.733,192.580 266.895 C 192.579 267.056,197.236 267.188,202.930 267.188 L 213.281 267.188 213.281 256.445 C 213.281 246.636,213.112 244.788,212.328 246.057 M334.375 270.325 C 334.375 283.438,334.268 287.164,333.887 287.272 C 333.618 287.347,330.322 288.151,326.563 289.057 C 313.797 292.134,303.066 295.771,291.105 301.074 C 286.965 302.909,283.509 304.342,283.424 304.256 C 283.149 303.979,277.724 292.458,277.828 292.372 C 278.241 292.031,290.582 286.629,294.432 285.104 C 300.756 282.597,309.590 279.631,315.625 277.987 L 320.508 276.657 320.607 265.575 C 320.661 259.479,320.788 254.272,320.888 254.004 C 321.023 253.640,322.757 253.516,327.722 253.516 L 334.375 253.516 334.375 270.325 M184.375 280.691 C 184.375 281.371,187.042 284.601,189.425 286.807 C 194.742 291.730,200.280 293.750,208.461 293.750 L 213.281 293.750 213.281 287.109 L 213.281 280.469 198.828 280.469 C 190.879 280.469,184.375 280.569,184.375 280.691 M266.872 305.193 C 270.882 312.079,270.791 311.374,267.896 313.115 C 266.540 313.931,263.653 315.783,261.482 317.231 L 257.534 319.864 253.865 314.532 C 251.847 311.599,250.145 309.086,250.083 308.949 C 249.982 308.725,253.401 306.427,260.938 301.653 C 262.334 300.769,263.564 300.043,263.672 300.040 C 263.779 300.036,265.219 302.355,266.872 305.193 " stroke="none" fill="#63936b" fill-rule="evenodd"></path><path id="path1" d="M0.000 200.000 L 0.000 400.000 200.000 400.000 L 400.000 400.000 400.000 200.000 L 400.000 0.000 200.000 0.000 L 0.000 0.000 0.000 200.000 M213.281 45.703 L 213.281 85.938 154.004 85.940 C 96.137 85.943,94.649 85.962,91.477 86.722 C 78.292 89.883,68.066 100.993,65.994 114.407 C 65.281 119.026,65.734 168.351,66.562 176.172 C 71.989 227.443,92.652 271.328,127.900 306.447 C 154.819 333.268,190.370 353.516,210.541 353.516 C 213.520 353.516,213.281 351.722,213.281 374.065 L 213.281 394.141 211.507 394.141 C 207.672 394.141,199.753 391.889,194.794 389.388 C 192.010 387.984,95.807 323.864,90.643 319.970 C 3.027 253.918,3.903 121.252,92.383 56.422 C 108.654 44.500,112.878 42.502,164.844 22.149 C 202.701 7.322,204.481 6.701,211.914 5.738 C 212.559 5.654,213.130 5.559,213.184 5.527 C 213.237 5.495,213.281 23.574,213.281 45.703 M242.220 19.924 C 281.469 43.514,331.395 58.574,370.410 58.592 L 374.609 58.594 374.609 190.155 L 374.609 321.716 365.918 323.007 C 337.165 327.279,325.686 330.115,309.838 336.866 C 288.309 346.036,272.695 356.933,254.282 375.639 C 243.967 386.118,238.836 389.667,230.176 392.312 L 226.953 393.296 226.953 386.355 L 226.953 379.414 229.415 378.368 C 234.179 376.343,236.666 374.324,246.094 364.824 C 276.372 334.316,307.304 318.675,351.135 311.709 C 356.509 310.855,361.002 310.156,361.118 310.156 C 361.234 310.156,361.285 256.503,361.231 190.927 L 361.133 71.698 354.492 71.019 C 310.719 66.549,273.087 53.998,234.863 31.123 L 226.953 26.389 226.953 18.491 L 226.953 10.593 232.552 14.036 C 235.632 15.929,239.982 18.579,242.220 19.924 M230.235 44.049 C 259.407 62.373,302.262 77.497,340.039 82.801 C 343.262 83.253,346.294 83.708,346.777 83.811 L 347.656 83.999 347.656 191.360 L 347.656 298.721 345.482 298.976 C 307.955 303.387,267.118 324.438,236.719 355.045 C 232.100 359.695,228.013 363.736,227.637 364.024 C 226.986 364.524,226.953 356.812,226.953 203.354 L 226.953 42.160 227.832 42.626 C 228.315 42.882,229.397 43.523,230.235 44.049 M213.281 164.613 L 213.281 230.008 210.645 231.674 C 198.765 239.182,180.370 242.976,180.032 237.988 C 179.936 236.573,180.230 236.127,184.053 231.886 C 195.822 218.833,199.811 207.736,199.798 188.086 C 199.781 163.029,190.547 145.696,171.093 134.200 C 154.004 124.102,127.051 123.083,108.789 131.846 C 102.927 134.659,98.287 137.999,92.856 143.317 L 87.861 148.209 92.541 152.888 L 97.220 157.568 101.503 153.430 C 109.636 145.573,116.764 141.848,127.102 140.055 C 158.280 134.646,183.844 152.570,186.383 181.617 C 187.984 199.939,184.175 212.053,173.069 223.963 C 170.896 226.293,168.791 228.842,168.391 229.627 C 162.885 240.439,169.795 252.761,181.738 253.429 C 185.159 253.620,185.055 253.525,183.920 255.423 C 175.656 269.234,160.166 270.940,148.254 259.350 L 144.295 255.498 139.508 260.297 L 134.721 265.095 138.705 268.920 C 146.965 276.848,153.846 279.912,164.396 280.361 L 169.612 280.583 170.029 281.795 C 175.023 296.297,189.891 306.478,206.738 306.933 L 213.281 307.110 213.281 323.672 L 213.281 340.234 212.012 340.234 C 203.486 340.230,189.173 334.934,175.494 326.721 C 124.466 296.084,89.945 244.355,81.268 185.525 C 79.567 173.993,79.301 167.962,79.307 141.016 L 79.313 115.430 80.225 112.847 C 81.984 107.864,85.261 104.043,89.896 101.568 C 94.376 99.176,91.271 99.287,154.980 99.251 L 213.281 99.219 213.281 164.613 M127.982 173.650 C 115.499 176.762,107.274 194.906,116.467 199.051 C 118.932 200.162,160.753 200.226,162.773 199.122 C 170.965 194.642,164.508 178.449,152.801 174.117 C 149.864 173.030,131.830 172.691,127.982 173.650 M213.281 256.445 L 213.281 267.188 202.930 267.188 C 197.236 267.188,192.579 267.056,192.580 266.895 C 192.581 266.733,193.118 265.811,193.773 264.844 C 196.157 261.328,198.362 256.218,199.024 252.677 C 199.266 251.383,199.456 251.208,201.110 250.756 C 203.457 250.116,212.042 246.519,212.328 246.057 C 213.112 244.788,213.281 246.636,213.281 256.445 M320.888 254.004 C 320.788 254.272,320.661 259.479,320.607 265.575 L 320.508 276.657 315.625 277.987 C 309.590 279.631,300.756 282.597,294.432 285.104 C 290.582 286.629,278.241 292.031,277.828 292.372 C 277.724 292.458,283.149 303.979,283.424 304.256 C 283.509 304.342,286.965 302.909,291.105 301.074 C 303.066 295.771,313.797 292.134,326.563 289.057 C 330.322 288.151,333.618 287.347,333.887 287.272 C 334.268 287.164,334.375 283.438,334.375 270.325 L 334.375 253.516 327.722 253.516 C 322.757 253.516,321.023 253.640,320.888 254.004 M213.281 287.109 L 213.281 293.750 208.461 293.750 C 200.280 293.750,194.742 291.730,189.425 286.807 C 187.042 284.601,184.375 281.371,184.375 280.691 C 184.375 280.569,190.879 280.469,198.828 280.469 L 213.281 280.469 213.281 287.109 M260.938 301.653 C 253.401 306.427,249.982 308.725,250.083 308.949 C 250.145 309.086,251.847 311.599,253.865 314.532 L 257.534 319.864 261.482 317.231 C 263.653 315.783,266.540 313.931,267.896 313.115 C 269.745 312.003,270.302 311.471,270.119 310.992 C 269.725 309.952,263.885 300.033,263.672 300.040 C 263.564 300.043,262.334 300.769,260.938 301.653 " stroke="none" fill="#141414" fill-rule="evenodd"></path></g></svg>