<?xml version="1.0" standalone="no"?>
<!DOCTYPE svg PUBLIC "-//W3C//DTD SVG 20010904//EN"
 "http://www.w3.org/TR/2001/REC-SVG-20010904/DTD/svg10.dtd">
<svg version="1.0" xmlns="http://www.w3.org/2000/svg"
 width="1024.000000pt" height="1024.000000pt" viewBox="0 0 1024.000000 1024.000000"
 preserveAspectRatio="xMidYMid meet">

<g transform="translate(0.000000,1024.000000) scale(0.100000,-0.100000)"
fill="#000000" stroke="none">
<path d="M0 5120 l0 -5120 5120 0 5120 0 0 5120 0 5120 -5120 0 -5120 0 0
-5120z m5460 3950 l0 -1020 -1527 -2 -1528 -3 -80 -23 c-214 -60 -383 -182
-504 -363 -62 -92 -91 -158 -122 -278 -18 -69 -19 -117 -19 -720 0 -355 5
-711 10 -791 127 -1847 1161 -3479 2770 -4377 314 -175 584 -266 898 -304
l102 -12 0 -515 0 -515 -65 7 c-92 9 -236 48 -340 92 -72 30 -343 207 -1365
887 -701 468 -1320 884 -1374 925 -895 677 -1483 1693 -1626 2807 -29 224 -42
576 -30 777 56 931 384 1760 979 2473 101 121 382 401 509 507 333 277 747
523 1159 687 461 184 1791 703 1850 721 76 24 234 58 276 59 l27 1 0 -1020z
m582 751 c389 -238 690 -398 1011 -535 739 -316 1501 -497 2307 -546 91 -5
180 -10 198 -10 l32 0 0 -3359 0 -3359 -27 -6 c-16 -3 -176 -29 -358 -56 -693
-106 -997 -192 -1463 -416 -463 -222 -796 -465 -1217 -889 -239 -240 -305
-295 -440 -364 -69 -35 -243 -101 -267 -101 -4 0 -8 78 -8 173 l0 172 60 23
c119 46 201 112 418 333 114 117 257 254 317 306 600 518 1337 874 2120 1024
60 12 202 36 315 53 l205 31 3 3058 c1 2092 -1 3057 -8 3057 -91 0 -618 70
-826 110 -856 164 -1657 476 -2434 947 l-165 100 -3 197 c-2 194 -2 197 17
186 11 -5 107 -64 213 -129z m-57 -766 c439 -252 837 -433 1310 -597 494 -171
976 -285 1518 -358 l87 -12 0 -2743 0 -2743 -27 -6 c-16 -3 -71 -13 -123 -21
-622 -105 -1239 -341 -1783 -682 -374 -235 -680 -491 -1029 -860 -58 -62 -111
-113 -117 -113 -8 0 -11 1118 -11 4115 0 2263 2 4115 5 4115 2 0 79 -43 170
-95z m-525 -3027 l-1 -1673 -72 -45 c-220 -137 -453 -210 -671 -210 -80 0
-106 16 -106 63 0 23 16 46 74 106 217 225 343 459 412 761 26 115 32 571 9
714 -77 494 -374 896 -831 1124 -92 46 -286 108 -404 128 -145 25 -551 26
-688 1 -310 -57 -574 -194 -812 -424 -66 -63 -120 -121 -120 -127 0 -6 54 -65
120 -131 l119 -119 118 115 c198 193 371 287 620 335 138 27 484 24 620 -5
131 -27 220 -60 324 -117 219 -121 373 -281 479 -498 99 -201 124 -345 118
-665 -5 -191 -8 -227 -31 -311 -56 -210 -145 -366 -306 -535 -70 -74 -109
-125 -133 -172 -31 -64 -33 -73 -33 -178 0 -99 3 -116 28 -169 73 -156 210
-247 374 -250 l61 -1 -26 -49 c-41 -76 -156 -187 -232 -224 -170 -83 -331 -83
-497 -2 -62 31 -104 62 -180 134 l-98 94 -123 -119 c-67 -65 -122 -122 -122
-126 0 -8 180 -180 227 -216 58 -46 184 -110 273 -138 82 -27 114 -32 242 -36
l147 -6 12 -36 c6 -20 27 -65 47 -101 133 -246 358 -430 618 -505 117 -34 195
-45 332 -45 l112 0 0 -421 0 -420 -57 6 c-223 26 -475 106 -683 217 -1154 617
-2019 1640 -2431 2877 -119 359 -194 718 -240 1146 -17 160 -25 1430 -9 1510
41 212 220 377 440 405 30 4 713 8 1518 9 l1462 1 0 -1672z m0 -2348 l0 -270
-264 0 -265 0 36 53 c50 72 101 185 122 269 l18 71 94 31 c52 18 130 51 174
73 44 22 81 41 83 42 1 0 2 -120 2 -269z m0 -790 l0 -170 -104 0 c-274 0 -469
98 -615 308 l-22 32 370 0 371 0 0 -170z"/>
<path d="M8210 3456 l0 -294 -66 -16 c-215 -54 -559 -175 -800 -282 -82 -36
-170 -75 -195 -86 l-47 -20 75 -156 c41 -87 76 -158 77 -160 2 -1 63 25 137
59 327 149 609 246 951 331 l218 53 0 433 0 432 -175 0 -175 0 0 -294z"/>
<path d="M6614 2479 c-71 -45 -148 -93 -171 -108 -24 -14 -43 -31 -43 -37 0
-10 160 -246 184 -271 9 -10 23 -5 66 24 30 21 105 68 165 106 61 37 110 71
110 75 0 13 -167 292 -175 292 -4 0 -65 -37 -136 -81z"/>
<path d="M3240 5787 c-84 -28 -144 -65 -199 -119 -93 -92 -147 -205 -158 -329
-7 -82 17 -143 73 -185 l37 -29 565 -3 c558 -3 565 -2 608 19 114 55 126 216
31 404 -57 115 -199 225 -327 254 -25 6 -161 11 -305 10 -243 0 -264 -1 -325
-22z"/>
</g>
</svg>
